<?xml version="1.0" encoding="UTF-8"?><svg id="Capa_2" xmlns="http://www.w3.org/2000/svg" viewBox="0 0 361.23 268.27"><defs><style>.cls-1,.cls-2{fill:#26b57b;}.cls-2{font-family:BustanistRegular, Bustanist;font-size:192px;}</style></defs><g id="Capa_1-2"><g><text class="cls-2" transform="translate(.05 167.42)"><tspan x="0" y="0">infood</tspan></text><g><polygon class="cls-1" points="38.38 214.27 38.38 214.27 38.37 214.27 38.38 214.27"/><path class="cls-1" d="M210.52,195.87c-1.76-1.16-2.99-1.05-4.1,.68-1.3,2.02-2.41,4.17-3.6,6.27h0c-.17,.27-.35,.53-.52,.8,0,0,0,0,0,0-.63,.55-1.05,1.22-1.14,2.06-.75,.8-1.32,1.72-1.67,2.77h0c-1.42,2.31-2.86,4.6-4.24,6.92-.77,1.29-1.62,2.43-3.32,2.2-1.6-.21-2.18-1.44-2.54-2.82,0,0,0,0,0,0,.5-.93,.97-1.89,1.52-2.79,2.82-4.58,5.67-9.14,8.51-13.71,0,0,0,0,0,0,1.02-1.2,1.92-2.48,2.49-3.96h0c1.1-1.29,1.57-2.82,.03-3.87-1.49-1.02-2.64,.17-3.52,1.41-.16,.23-.28,.5-.43,.74-3.7,5.84-7.43,11.66-11.08,17.52-.72,1.16-1.61,1.96-2.87,2.4-.07-.07-.13-.07-.19,0h0c-1.89-.5-2.81-1.71-2.71-3.67h0c2.1-3.31,4.2-6.62,6.29-9.94,2.1-3.31,4.21-6.62,6.28-9.95,.79-1.27,1.47-2.82-.08-3.79-1.58-.98-2.81,.13-3.67,1.53-.11,.18-.21,.37-.33,.55-4.01,6.32-8.03,12.65-12.04,18.97h0c-.45,.08-.45,.41-.4,.76-1.34,.22-2.62,.12-3.76-.71-.88-1.54-.68-2.95,.37-4.37,1.19-1.6,2.27-3.29,3.39-4.94,2.89-4.25,5.77-8.5,8.66-12.75,1-1.47,1.21-2.94-.26-4.21-1.17-1.02-3.01-.54-4.28,1.01-.18,.22-.35,.45-.52,.68-3.27,4.42-6.57,8.81-9.79,13.26-2.13,2.93-4.54,5.66-6.33,8.84,0,0,0,0,0,0-.38,.22-.66,.52-.77,.96-1.01,1.02-1.88,2.14-2.54,3.43-.96,.84-1.69,1.86-2.21,3.02,0,0,0,0,0,0-1.28,1.48-2.1,3.17-2.44,5.09,0,0,0,0,0,0-.59,1.12-.87,2.3-.77,3.56-.5,1.63-.46,3.26,.05,4.89,0,0,0,0,0,0-.06,.11-.05,.2,.05,.28-.05,1.11,.33,2.1,.9,3.03,0,0,0,0,0,0,.27,1.32,1.02,2.48,2.04,3.17,1.89,1.29,1.32,2.14-.06,3.34-20.55,17.87-44.2,23.98-70.86,18.72-4.49-.88-8.73-2.57-13.07-3.93,0,0,0,0,0,0h0c-7.98-3.64-15.44-8.12-22.14-13.8-.65-.65-1.23-1.41-1.97-1.94-1.49-1.07-1.44-1.92-.31-3.41,2.71-3.57,4.41-7.63,4.61-12.19,0,0,0,0,0,0,.75-2.98,.41-5.91-.51-8.79h0c-.03-.23-.07-.47-.1-.7-.53-2.48-1.49-4.78-2.98-6.85,0,0,0,0,0,0-.52-1.14-1.18-2.19-2.2-2.96,0,0,0,0,0,0-2.35-3.4-5.33-6.15-8.7-8.49,0,0,0,0,0,0-.75-.86-1.53-1.67-2.65-2.06-.55-.81-1.41-1.17-2.23-1.61h0c-.08-.09-.17-.14-.3-.13h0c-1.12-1.15-2.51-1.85-3.96-2.46h0c-.89-.78-1.9-1.36-3.05-1.66-.21-.17-.44-.3-.68-.39-2.08-1.22-4.3-2.08-6.7-2.49-.12-.08-.25-.1-.39-.08t0,0c-4.18-1.41-8.35-1.95-12.46,.23,0,0,0,0,0,0-1.91,.3-3.1,1.63-4.17,3.04-2.16,2.84-3.18,6.12-3.65,9.64-.64,4.75-.72,9.47,.45,14.15h0c.29,4.59,1.49,8.96,3.2,13.21,0,0,0,0,0,0,.06,.93,.35,1.78,.9,2.53,.65,1.85,1.39,3.66,2.59,5.24,0,0,0,0,0,0,.1,1.24,1.15,1.9,1.72,2.86,.3,.71,.79,1.26,1.41,1.7h0c4.1,4.74,9.14,7.73,15.47,8.34,2.69,.62,5.37,.61,8.03-.11h0s0,0,0,0c1.52,.42,2.98-1.24,4.51-.11,6.01,6.54,12.98,11.87,20.75,16.16,0,0,0,0,0,0,1.2,.82,2.44,1.56,3.85,1.96,.44,.62,1.1,.8,1.79,.89,.71,.74,1.7,.92,2.6,1.27t0,0c.17,.07,.33,.15,.5,.22,3.83,1.8,7.77,3.29,11.9,4.23,3.68,1.25,7.45,2.08,11.33,2.41,0,0,0,0,0,0,3.84,.71,7.7,1.19,11.61,1.02,2.43,.13,4.86,.15,7.29-.12,11.34-.41,22.17-2.99,32.48-7.71,1.33-.48,2.7-.87,3.84-1.78,.05-.08,.11-.14,.18-.19-.06,.06-.12,.13-.18,.19,1.48-.47,2.82-1.18,4.06-2.1,.06-.02,.11-.06,.17-.12,1.51-.74,3-1.5,4.28-2.62h0c5.76-3.26,10.72-7.56,15.42-12.16,1.09-1.07,1.89-1.74,3.37-.62,1.03,.78,2.37,.95,3.68,.97,7.37,.1,12.52-3.67,15.9-9.8,4.16-7.54,8.43-15.04,12.01-22.89,2.29-3.11,3.82-6.63,5.54-10.05,.58-1.15,.49-2.35-.59-3.29Zm-172.11,18.4s-.03,0-.04,0c0,0,0,0,0,0,0,0,0,0,0,0,0,0,0,0,0,0,0,0,.01,0,.02-.01,0,0,.01,0,.02,.02Zm-30.23-34.65s.07-.08,.1-.12c-.02,.05-.06,.08-.1,.12Zm151.15,35.45s0,0,0,0c0,0,0,0,0,0,0,0,0,0,0,0Zm-2.82,10.45s.03,.03,.05,.05c-.04,.02-.07,.04-.12,.06,.03-.04,.05-.08,.08-.11Zm50.12-28.01s.06,.04,.08,.06c-.06,.05-.11,.08-.18,.13,.03-.07,.06-.13,.1-.19Zm-3.16,5.19c-.22,.05-.44,.09-.65,.14,.31-.3,.5-.27,.65-.14Z"/><polygon class="cls-1" points="38.37 214.27 38.38 214.27 38.38 214.27 38.37 214.27"/></g></g></g></svg>